<mxfile host="app.diagrams.net" modified="2024-04-16T04:04:49.505Z" agent="Mozilla/5.0 (Windows NT 10.0; Win64; x64) AppleWebKit/537.36 (KHTML, like Gecko) Chrome/123.0.0.0 Safari/537.36" etag="a9_rUet0xgNqce_jYb72" version="24.2.5" type="device">
  <diagram name="페이지-1" id="Q7cNkxihctDZXtnz1PXN">
    <mxGraphModel dx="2501" dy="780" grid="1" gridSize="10" guides="1" tooltips="1" connect="1" arrows="1" fold="1" page="1" pageScale="1" pageWidth="827" pageHeight="1169" math="0" shadow="0">
      <root>
        <mxCell id="0" />
        <mxCell id="1" parent="0" />
        <mxCell id="7xCnObR54p7DDPZthAfY-1" value="DB접속" style="rounded=0;whiteSpace=wrap;html=1;" vertex="1" parent="1">
          <mxGeometry x="354" y="140" width="120" height="60" as="geometry" />
        </mxCell>
        <mxCell id="7xCnObR54p7DDPZthAfY-2" value="메모 페이지&amp;nbsp;&lt;div&gt;시작&lt;/div&gt;" style="strokeWidth=2;html=1;shape=mxgraph.flowchart.terminator;whiteSpace=wrap;" vertex="1" parent="1">
          <mxGeometry x="364" y="40" width="100" height="60" as="geometry" />
        </mxCell>
        <mxCell id="7xCnObR54p7DDPZthAfY-3" value="" style="endArrow=classic;html=1;rounded=0;exitX=0.5;exitY=1;exitDx=0;exitDy=0;exitPerimeter=0;" edge="1" parent="1" source="7xCnObR54p7DDPZthAfY-2">
          <mxGeometry width="50" height="50" relative="1" as="geometry">
            <mxPoint x="440" y="360" as="sourcePoint" />
            <mxPoint x="414" y="140" as="targetPoint" />
          </mxGeometry>
        </mxCell>
        <mxCell id="7xCnObR54p7DDPZthAfY-4" value="" style="endArrow=classic;html=1;rounded=0;exitX=0.5;exitY=1;exitDx=0;exitDy=0;" edge="1" parent="1" source="7xCnObR54p7DDPZthAfY-1">
          <mxGeometry width="50" height="50" relative="1" as="geometry">
            <mxPoint x="390" y="230" as="sourcePoint" />
            <mxPoint x="414" y="230" as="targetPoint" />
          </mxGeometry>
        </mxCell>
        <mxCell id="7xCnObR54p7DDPZthAfY-14" value="&amp;nbsp;메소드 체크" style="strokeWidth=2;html=1;shape=mxgraph.flowchart.decision;whiteSpace=wrap;" vertex="1" parent="1">
          <mxGeometry x="364" y="230" width="100" height="100" as="geometry" />
        </mxCell>
        <mxCell id="7xCnObR54p7DDPZthAfY-15" value="" style="endArrow=classic;html=1;rounded=0;exitX=0.73;exitY=0.79;exitDx=0;exitDy=0;exitPerimeter=0;entryX=0.5;entryY=0;entryDx=0;entryDy=0;" edge="1" parent="1" target="7xCnObR54p7DDPZthAfY-17">
          <mxGeometry relative="1" as="geometry">
            <mxPoint x="463.9999999999998" y="280" as="sourcePoint" />
            <mxPoint x="547" y="340" as="targetPoint" />
            <Array as="points">
              <mxPoint x="550" y="280" />
            </Array>
          </mxGeometry>
        </mxCell>
        <mxCell id="7xCnObR54p7DDPZthAfY-16" value="" style="endArrow=classic;html=1;rounded=0;entryX=0.5;entryY=0;entryDx=0;entryDy=0;entryPerimeter=0;" edge="1" parent="1">
          <mxGeometry relative="1" as="geometry">
            <mxPoint x="364" y="280" as="sourcePoint" />
            <mxPoint x="280" y="340" as="targetPoint" />
            <Array as="points">
              <mxPoint x="280" y="280" />
            </Array>
          </mxGeometry>
        </mxCell>
        <mxCell id="7xCnObR54p7DDPZthAfY-17" value="POST파라미터&lt;div&gt;획득&lt;/div&gt;" style="shape=parallelogram;perimeter=parallelogramPerimeter;whiteSpace=wrap;html=1;fixedSize=1;" vertex="1" parent="1">
          <mxGeometry x="490" y="340" width="120" height="60" as="geometry" />
        </mxCell>
        <mxCell id="7xCnObR54p7DDPZthAfY-18" value="GET 파라미터&lt;br&gt;획득" style="shape=parallelogram;perimeter=parallelogramPerimeter;whiteSpace=wrap;html=1;fixedSize=1;" vertex="1" parent="1">
          <mxGeometry x="210" y="340" width="120" height="60" as="geometry" />
        </mxCell>
        <mxCell id="7xCnObR54p7DDPZthAfY-19" value="" style="endArrow=classic;html=1;rounded=0;exitX=0.5;exitY=1;exitDx=0;exitDy=0;" edge="1" parent="1">
          <mxGeometry width="50" height="50" relative="1" as="geometry">
            <mxPoint x="270" y="400" as="sourcePoint" />
            <mxPoint x="270" y="430" as="targetPoint" />
            <Array as="points" />
          </mxGeometry>
        </mxCell>
        <mxCell id="7xCnObR54p7DDPZthAfY-20" value="DB에서 게시글 조회" style="rounded=0;whiteSpace=wrap;html=1;" vertex="1" parent="1">
          <mxGeometry x="210" y="430" width="120" height="60" as="geometry" />
        </mxCell>
        <mxCell id="7xCnObR54p7DDPZthAfY-21" value="" style="endArrow=classic;html=1;rounded=0;exitX=0.5;exitY=1;exitDx=0;exitDy=0;" edge="1" parent="1">
          <mxGeometry width="50" height="50" relative="1" as="geometry">
            <mxPoint x="270" y="490" as="sourcePoint" />
            <mxPoint x="270" y="520" as="targetPoint" />
            <Array as="points" />
          </mxGeometry>
        </mxCell>
        <mxCell id="7xCnObR54p7DDPZthAfY-22" value="게시글 획득" style="rounded=0;whiteSpace=wrap;html=1;" vertex="1" parent="1">
          <mxGeometry x="210" y="520" width="120" height="60" as="geometry" />
        </mxCell>
        <mxCell id="7xCnObR54p7DDPZthAfY-23" value="화면에 출력" style="shape=document;whiteSpace=wrap;html=1;boundedLbl=1;" vertex="1" parent="1">
          <mxGeometry x="210" y="610" width="120" height="80" as="geometry" />
        </mxCell>
        <mxCell id="7xCnObR54p7DDPZthAfY-24" value="" style="endArrow=classic;html=1;rounded=0;exitX=0.5;exitY=1;exitDx=0;exitDy=0;" edge="1" parent="1">
          <mxGeometry width="50" height="50" relative="1" as="geometry">
            <mxPoint x="269.8" y="580" as="sourcePoint" />
            <mxPoint x="269.8" y="610" as="targetPoint" />
            <Array as="points" />
          </mxGeometry>
        </mxCell>
        <mxCell id="7xCnObR54p7DDPZthAfY-25" value="메모 페이지&amp;nbsp;&lt;div&gt;종료&lt;/div&gt;" style="strokeWidth=2;html=1;shape=mxgraph.flowchart.terminator;whiteSpace=wrap;" vertex="1" parent="1">
          <mxGeometry x="220" y="710" width="100" height="60" as="geometry" />
        </mxCell>
        <mxCell id="7xCnObR54p7DDPZthAfY-26" value="" style="endArrow=classic;html=1;rounded=0;exitX=0.5;exitY=1;exitDx=0;exitDy=0;" edge="1" parent="1">
          <mxGeometry width="50" height="50" relative="1" as="geometry">
            <mxPoint x="269.76" y="680" as="sourcePoint" />
            <mxPoint x="269.76" y="710" as="targetPoint" />
            <Array as="points" />
          </mxGeometry>
        </mxCell>
        <mxCell id="7xCnObR54p7DDPZthAfY-27" value="" style="endArrow=classic;html=1;rounded=0;exitX=0.5;exitY=1;exitDx=0;exitDy=0;" edge="1" parent="1">
          <mxGeometry width="50" height="50" relative="1" as="geometry">
            <mxPoint x="550" y="400" as="sourcePoint" />
            <mxPoint x="550" y="430" as="targetPoint" />
            <Array as="points" />
          </mxGeometry>
        </mxCell>
        <mxCell id="7xCnObR54p7DDPZthAfY-28" value="memo_insert&lt;br&gt;처리 시작" style="rounded=0;whiteSpace=wrap;html=1;" vertex="1" parent="1">
          <mxGeometry x="490" y="430" width="120" height="60" as="geometry" />
        </mxCell>
        <mxCell id="7xCnObR54p7DDPZthAfY-29" value="DB접속" style="rounded=0;whiteSpace=wrap;html=1;" vertex="1" parent="1">
          <mxGeometry x="490" y="520" width="120" height="60" as="geometry" />
        </mxCell>
        <mxCell id="7xCnObR54p7DDPZthAfY-30" value="" style="endArrow=classic;html=1;rounded=0;exitX=0.5;exitY=1;exitDx=0;exitDy=0;" edge="1" parent="1" source="7xCnObR54p7DDPZthAfY-28">
          <mxGeometry width="50" height="50" relative="1" as="geometry">
            <mxPoint x="550" y="500" as="sourcePoint" />
            <mxPoint x="550" y="520" as="targetPoint" />
          </mxGeometry>
        </mxCell>
        <mxCell id="7xCnObR54p7DDPZthAfY-31" value="POST파라미터&lt;div&gt;획득&lt;/div&gt;" style="shape=parallelogram;perimeter=parallelogramPerimeter;whiteSpace=wrap;html=1;fixedSize=1;" vertex="1" parent="1">
          <mxGeometry x="490" y="610" width="120" height="60" as="geometry" />
        </mxCell>
        <mxCell id="7xCnObR54p7DDPZthAfY-32" value="" style="endArrow=classic;html=1;rounded=0;exitX=0.5;exitY=1;exitDx=0;exitDy=0;" edge="1" parent="1">
          <mxGeometry width="50" height="50" relative="1" as="geometry">
            <mxPoint x="549.76" y="580" as="sourcePoint" />
            <mxPoint x="549.76" y="610" as="targetPoint" />
          </mxGeometry>
        </mxCell>
        <mxCell id="7xCnObR54p7DDPZthAfY-33" value="파라미터&lt;br&gt;예외 처리" style="rhombus;whiteSpace=wrap;html=1;" vertex="1" parent="1">
          <mxGeometry x="510" y="700" width="80" height="80" as="geometry" />
        </mxCell>
        <mxCell id="7xCnObR54p7DDPZthAfY-34" value="" style="endArrow=classic;html=1;rounded=0;exitX=0.5;exitY=1;exitDx=0;exitDy=0;" edge="1" parent="1">
          <mxGeometry width="50" height="50" relative="1" as="geometry">
            <mxPoint x="549.8" y="670" as="sourcePoint" />
            <mxPoint x="549.8" y="700" as="targetPoint" />
          </mxGeometry>
        </mxCell>
        <mxCell id="7xCnObR54p7DDPZthAfY-37" value="" style="endArrow=classic;html=1;rounded=0;" edge="1" parent="1">
          <mxGeometry relative="1" as="geometry">
            <mxPoint x="550" y="780" as="sourcePoint" />
            <mxPoint x="550" y="830" as="targetPoint" />
          </mxGeometry>
        </mxCell>
        <mxCell id="7xCnObR54p7DDPZthAfY-38" value="NO" style="edgeLabel;resizable=0;html=1;;align=center;verticalAlign=middle;" connectable="0" vertex="1" parent="7xCnObR54p7DDPZthAfY-37">
          <mxGeometry relative="1" as="geometry" />
        </mxCell>
        <mxCell id="7xCnObR54p7DDPZthAfY-40" value="메모 페이지 이동" style="rounded=0;whiteSpace=wrap;html=1;" vertex="1" parent="1">
          <mxGeometry x="490" y="830" width="120" height="60" as="geometry" />
        </mxCell>
        <mxCell id="7xCnObR54p7DDPZthAfY-41" value="" style="endArrow=classic;html=1;rounded=0;exitX=0;exitY=0.5;exitDx=0;exitDy=0;entryX=0.5;entryY=1;entryDx=0;entryDy=0;entryPerimeter=0;" edge="1" parent="1" source="7xCnObR54p7DDPZthAfY-40" target="7xCnObR54p7DDPZthAfY-25">
          <mxGeometry width="50" height="50" relative="1" as="geometry">
            <mxPoint x="640" y="840" as="sourcePoint" />
            <mxPoint x="690" y="790" as="targetPoint" />
            <Array as="points">
              <mxPoint x="270" y="860" />
            </Array>
          </mxGeometry>
        </mxCell>
        <mxCell id="7xCnObR54p7DDPZthAfY-42" value="예외 메세지 출력" style="shape=document;whiteSpace=wrap;html=1;boundedLbl=1;" vertex="1" parent="1">
          <mxGeometry x="680" y="710" width="120" height="80" as="geometry" />
        </mxCell>
        <mxCell id="7xCnObR54p7DDPZthAfY-43" value="" style="endArrow=none;html=1;rounded=0;exitX=0.521;exitY=0.865;exitDx=0;exitDy=0;exitPerimeter=0;entryX=0.5;entryY=1;entryDx=0;entryDy=0;entryPerimeter=0;" edge="1" parent="1" source="7xCnObR54p7DDPZthAfY-42" target="7xCnObR54p7DDPZthAfY-25">
          <mxGeometry width="50" height="50" relative="1" as="geometry">
            <mxPoint x="750" y="750" as="sourcePoint" />
            <mxPoint x="800" y="700" as="targetPoint" />
            <Array as="points">
              <mxPoint x="743" y="950" />
              <mxPoint x="270" y="950" />
            </Array>
          </mxGeometry>
        </mxCell>
        <mxCell id="7xCnObR54p7DDPZthAfY-44" value="DB접속" style="rounded=0;whiteSpace=wrap;html=1;" vertex="1" parent="1">
          <mxGeometry x="-160" y="290" width="120" height="60" as="geometry" />
        </mxCell>
        <mxCell id="7xCnObR54p7DDPZthAfY-45" value="메모 삭제&lt;br&gt;페이지 시작" style="strokeWidth=2;html=1;shape=mxgraph.flowchart.terminator;whiteSpace=wrap;" vertex="1" parent="1">
          <mxGeometry x="-150" y="190" width="100" height="60" as="geometry" />
        </mxCell>
        <mxCell id="7xCnObR54p7DDPZthAfY-46" value="" style="endArrow=classic;html=1;rounded=0;exitX=0.5;exitY=1;exitDx=0;exitDy=0;exitPerimeter=0;" edge="1" parent="1" source="7xCnObR54p7DDPZthAfY-45">
          <mxGeometry width="50" height="50" relative="1" as="geometry">
            <mxPoint x="-74" y="510" as="sourcePoint" />
            <mxPoint x="-100" y="290" as="targetPoint" />
          </mxGeometry>
        </mxCell>
        <mxCell id="7xCnObR54p7DDPZthAfY-47" value="" style="endArrow=classic;html=1;rounded=0;exitX=0.5;exitY=1;exitDx=0;exitDy=0;" edge="1" parent="1" source="7xCnObR54p7DDPZthAfY-44">
          <mxGeometry width="50" height="50" relative="1" as="geometry">
            <mxPoint x="-124" y="380" as="sourcePoint" />
            <mxPoint x="-100" y="380" as="targetPoint" />
          </mxGeometry>
        </mxCell>
        <mxCell id="7xCnObR54p7DDPZthAfY-51" value="POST파라미터&lt;div&gt;획득&lt;/div&gt;" style="shape=parallelogram;perimeter=parallelogramPerimeter;whiteSpace=wrap;html=1;fixedSize=1;" vertex="1" parent="1">
          <mxGeometry x="-160" y="380" width="120" height="60" as="geometry" />
        </mxCell>
        <mxCell id="7xCnObR54p7DDPZthAfY-58" value="파라미터&lt;br&gt;예외 처리" style="rhombus;whiteSpace=wrap;html=1;" vertex="1" parent="1">
          <mxGeometry x="-140" y="480" width="80" height="80" as="geometry" />
        </mxCell>
        <mxCell id="7xCnObR54p7DDPZthAfY-59" value="" style="endArrow=classic;html=1;rounded=0;" edge="1" parent="1">
          <mxGeometry relative="1" as="geometry">
            <mxPoint x="-100" y="560" as="sourcePoint" />
            <mxPoint x="-100" y="610" as="targetPoint" />
          </mxGeometry>
        </mxCell>
        <mxCell id="7xCnObR54p7DDPZthAfY-60" value="NO" style="edgeLabel;resizable=0;html=1;;align=center;verticalAlign=middle;" connectable="0" vertex="1" parent="7xCnObR54p7DDPZthAfY-59">
          <mxGeometry relative="1" as="geometry" />
        </mxCell>
        <mxCell id="7xCnObR54p7DDPZthAfY-61" value="메모 페이지 이동" style="rounded=0;whiteSpace=wrap;html=1;" vertex="1" parent="1">
          <mxGeometry x="-160" y="610" width="120" height="60" as="geometry" />
        </mxCell>
        <mxCell id="7xCnObR54p7DDPZthAfY-62" value="" style="endArrow=classic;html=1;rounded=0;" edge="1" parent="1">
          <mxGeometry relative="1" as="geometry">
            <mxPoint x="590" y="739.58" as="sourcePoint" />
            <mxPoint x="680" y="740" as="targetPoint" />
          </mxGeometry>
        </mxCell>
        <mxCell id="7xCnObR54p7DDPZthAfY-63" value="YES" style="edgeLabel;resizable=0;html=1;;align=center;verticalAlign=middle;" connectable="0" vertex="1" parent="7xCnObR54p7DDPZthAfY-62">
          <mxGeometry relative="1" as="geometry" />
        </mxCell>
        <mxCell id="7xCnObR54p7DDPZthAfY-64" value="" style="endArrow=classic;html=1;rounded=0;exitX=0.5;exitY=1;exitDx=0;exitDy=0;entryX=0.5;entryY=0;entryDx=0;entryDy=0;" edge="1" parent="1" source="7xCnObR54p7DDPZthAfY-51" target="7xCnObR54p7DDPZthAfY-58">
          <mxGeometry width="50" height="50" relative="1" as="geometry">
            <mxPoint x="256" y="650" as="sourcePoint" />
            <mxPoint x="306" y="600" as="targetPoint" />
          </mxGeometry>
        </mxCell>
        <mxCell id="7xCnObR54p7DDPZthAfY-65" value="" style="endArrow=classic;html=1;rounded=0;" edge="1" parent="1">
          <mxGeometry relative="1" as="geometry">
            <mxPoint x="-60" y="519.58" as="sourcePoint" />
            <mxPoint x="66" y="610" as="targetPoint" />
            <Array as="points">
              <mxPoint x="66" y="520" />
            </Array>
          </mxGeometry>
        </mxCell>
        <mxCell id="7xCnObR54p7DDPZthAfY-66" value="YES" style="edgeLabel;resizable=0;html=1;;align=center;verticalAlign=middle;" connectable="0" vertex="1" parent="7xCnObR54p7DDPZthAfY-65">
          <mxGeometry relative="1" as="geometry" />
        </mxCell>
        <mxCell id="7xCnObR54p7DDPZthAfY-67" value="예외 메세지 출력" style="shape=document;whiteSpace=wrap;html=1;boundedLbl=1;" vertex="1" parent="1">
          <mxGeometry x="6" y="610" width="120" height="80" as="geometry" />
        </mxCell>
        <mxCell id="7xCnObR54p7DDPZthAfY-68" value="" style="endArrow=classic;html=1;rounded=0;exitX=0.5;exitY=1;exitDx=0;exitDy=0;entryX=0;entryY=0.5;entryDx=0;entryDy=0;entryPerimeter=0;" edge="1" parent="1" source="7xCnObR54p7DDPZthAfY-61" target="7xCnObR54p7DDPZthAfY-25">
          <mxGeometry width="50" height="50" relative="1" as="geometry">
            <mxPoint x="50" y="760" as="sourcePoint" />
            <mxPoint x="100" y="710" as="targetPoint" />
            <Array as="points">
              <mxPoint x="-100" y="740" />
            </Array>
          </mxGeometry>
        </mxCell>
        <mxCell id="7xCnObR54p7DDPZthAfY-69" value="" style="endArrow=none;html=1;rounded=0;entryX=0.533;entryY=0.825;entryDx=0;entryDy=0;entryPerimeter=0;" edge="1" parent="1" target="7xCnObR54p7DDPZthAfY-67">
          <mxGeometry width="50" height="50" relative="1" as="geometry">
            <mxPoint x="70" y="740" as="sourcePoint" />
            <mxPoint x="100" y="710" as="targetPoint" />
          </mxGeometry>
        </mxCell>
      </root>
    </mxGraphModel>
  </diagram>
</mxfile>
